<svg width="57" height="50" viewBox="0 0 57 50" fill="none" xmlns="http://www.w3.org/2000/svg">
<path d="M7.74032 23.1959V32.3953C7.74032 41.5946 11.9459 45.2826 22.4364 45.2826H35.0296C45.5201 45.2826 49.7257 41.5946 49.7257 32.3953V23.1959" stroke="black" stroke-width="1.29401" stroke-linecap="round" stroke-linejoin="round"/>
<path d="M28.7446 24.794C33.0203 24.794 36.1744 21.7412 35.7539 17.9918L34.2119 4.30542H23.3008L21.7354 17.9918C21.3148 21.7412 24.469 24.794 28.7446 24.794Z" stroke="black" stroke-width="1.29401" stroke-linecap="round" stroke-linejoin="round"/>
<path d="M43.4874 24.794C48.207 24.794 51.6649 21.4339 51.1976 17.3157L50.5434 11.6813C49.7023 6.35428 47.3659 4.30542 41.2445 4.30542H34.1184L35.7539 18.6679C36.1511 22.0485 39.6323 24.794 43.4874 24.794ZM13.8851 24.794C17.7401 24.794 21.2214 22.0485 21.5952 18.6679L22.1092 14.1399L23.2307 4.30542H16.1047C9.98325 4.30542 7.64684 6.35428 6.80573 11.6813L6.1749 17.3157C5.70761 21.4339 9.16551 24.794 13.8851 24.794ZM28.7447 35.0383C24.8428 35.0383 22.9036 36.7388 22.9036 40.1604V45.2825H34.5857V40.1604C34.5857 36.7388 32.6465 35.0383 28.7447 35.0383Z" stroke="black" stroke-width="1.29401" stroke-linecap="round" stroke-linejoin="round"/>
</svg>
