<svg width="70" height="56" viewBox="0 0 70 56" fill="none" xmlns="http://www.w3.org/2000/svg">
<path d="M43.2078 4.75586V27.7606C43.2078 30.2911 40.6197 32.3615 37.4566 32.3615H5.82513V13.9577C5.82513 8.8737 10.9724 4.75586 17.3275 4.75586H43.2078Z" stroke="white" stroke-width="1.29401" stroke-linecap="round" stroke-linejoin="round"/>
<path d="M63.3369 32.3616V39.263C63.3369 43.0818 59.4836 46.1644 54.7101 46.1644H51.8345C51.8345 43.6339 49.2465 41.5635 46.0833 41.5635C42.9202 41.5635 40.3322 43.6339 40.3322 46.1644H28.8298C28.8298 43.6339 26.2418 41.5635 23.0787 41.5635C19.9155 41.5635 17.3275 43.6339 17.3275 46.1644H14.4519C9.67842 46.1644 5.82513 43.0818 5.82513 39.263V32.3616H37.4566C40.6197 32.3616 43.2078 30.2912 43.2078 27.7606V11.6573H48.4988C50.5693 11.6573 52.4672 12.5545 53.5024 13.9808L58.4196 20.8592H54.7101C53.1285 20.8592 51.8345 21.8944 51.8345 23.1597V30.0611C51.8345 31.3264 53.1285 32.3616 54.7101 32.3616H63.3369Z" stroke="white" stroke-width="1.29401" stroke-linecap="round" stroke-linejoin="round"/>
<path d="M23.0786 50.7652C24.6039 50.7652 26.0668 50.2805 27.1453 49.4177C28.2239 48.5548 28.8298 47.3845 28.8298 46.1643C28.8298 44.9441 28.2239 43.7738 27.1453 42.9109C26.0668 42.0481 24.6039 41.5634 23.0786 41.5634C21.5533 41.5634 20.0905 42.0481 19.0119 42.9109C17.9334 43.7738 17.3275 44.9441 17.3275 46.1643C17.3275 47.3845 17.9334 48.5548 19.0119 49.4177C20.0905 50.2805 21.5533 50.7652 23.0786 50.7652V50.7652ZM46.0833 50.7652C47.6086 50.7652 49.0715 50.2805 50.15 49.4177C51.2286 48.5548 51.8345 47.3845 51.8345 46.1643C51.8345 44.9441 51.2286 43.7738 50.15 42.9109C49.0715 42.0481 47.6086 41.5634 46.0833 41.5634C44.558 41.5634 43.0952 42.0481 42.0166 42.9109C40.9381 43.7738 40.3321 44.9441 40.3321 46.1643C40.3321 47.3845 40.9381 48.5548 42.0166 49.4177C43.0952 50.2805 44.558 50.7652 46.0833 50.7652ZM63.3368 27.7605V32.3615H54.7101C53.1285 32.3615 51.8345 31.3263 51.8345 30.061V23.1596C51.8345 21.8943 53.1285 20.8591 54.7101 20.8591H58.4196L63.3368 27.7605Z" stroke="white" stroke-width="1.29401" stroke-linecap="round" stroke-linejoin="round"/>
</svg>
