<?xml version="1.0" encoding="utf-8"?>
<!-- Generator: Adobe Illustrator 16.0.0, SVG Export Plug-In . SVG Version: 6.00 Build 0)  -->
<!DOCTYPE svg PUBLIC "-//W3C//DTD SVG 1.1//EN" "http://www.w3.org/Graphics/SVG/1.1/DTD/svg11.dtd">
<svg version="1.1" id="Layer_1" xmlns="http://www.w3.org/2000/svg" xmlns:xlink="http://www.w3.org/1999/xlink" x="0px" y="0px"
	 width="694.713px" height="199.69px" viewBox="0 0 694.713 199.69" enable-background="new 0 0 694.713 199.69"
	 xml:space="preserve">
<polygon fill-rule="evenodd" clip-rule="evenodd" fill="#414141" points="219.729,145.519 219.729,15.629 279.842,15.629 
	279.842,115.346 356.386,115.346 356.386,145.519 "/>
<path fill-rule="evenodd" clip-rule="evenodd" fill="#414141" d="M599.245,145.499V82.102h-20.809v-24.41h20.482l0.044-10.596
	c0.044-10.544,4.48-18.435,13.461-23.659c8.95-5.201,22.502-7.808,40.63-7.808c13.914,0,27.869,1.049,41.648,2.992l0.011,23.452
	c-10.379-0.89-29.2-4.196-38.743,0.687c-2.955,1.513-4.426,3.933-4.426,7.337v7.595h37.092v24.41h-35.582v63.397H599.245z"/>
<path fill-rule="evenodd" clip-rule="evenodd" fill="#414141" d="M542.802,167.108L542.802,167.108
	c-0.559-0.746-1.117-1.408-1.104-2.385c0.013-1.142,1.007-2.508,2.236-3.712c1.716-1.187,3.827-1.967,5.861-2.337
	c0.249-0.727,1.553-1.436,3.505-1.889c2.272-0.531,4.225-0.821,5.76-0.629c0.804,0.179,1.688,0.766,2.331,1.266
	c-1.01,2.997-1.846,4.858-2.421,5.58c-0.264,1.46-1.816,2.738-4.257,3.587c-2.197,0.694-3.985,1.315-5.042,1.706
	c-1.136-0.025-2.43-0.049-3.326,0.095c-2.021-0.032-3.556-0.305-3.548-1.04L542.802,167.108z M430.4,191.191v-0.28
	c0.301-0.215,0.603-0.401,0.903-0.574c0.436-0.218,0.895-0.42,1.376-0.59l3.526-2.066l1.019-0.957
	c0.97-1.071,1.65-1.062,2.442-1.565c0.767-0.521,2.178-1.346,2.671-2.203l1.499-0.168c0.507-0.156,0.913-0.285,1.271-0.37
	c0.329-0.086,0.633-0.132,0.89-0.13c0.403,0.005,0.705,0.052,0.956,0.14c0.254,0.088,0.38,0.224,0.376,0.381
	c0,0.089-0.103,0.296-0.312,0.63c-0.208,0.314-0.363,0.609-0.466,0.871l-1.507,2.679l-0.95,3.069l-0.974,0.903l-0.466,1.017
	l-1.507,2.807l-0.011,0.688l-0.934,1.659l-0.017,1.167l0.603,0.516c0.429,0.088,0.834,0.149,1.188,0.193
	c0.332,0.046,0.585,0.062,0.734,0.062l1.042-0.08c0.201,0.059,0.378,0.105,0.556,0.134c0.178,0.031,0.353,0.047,0.559,0.047
	c0.405,0.005,0.81-0.052,1.267-0.179c0.435-0.129,0.892-0.318,1.353-0.577c1.479-0.807,2.728-1.532,3.753-2.169
	c1.046-0.634,1.764-1.169,2.224-1.591l2.097-1.444l6.635-5.564c0.481-0.188,0.992-0.404,1.479-0.65
	c0.509-0.243,1.173-0.59,2.016-1.082l3.68-2.37l2.597-1.007l1.738-1.145c1.096-0.505,1.96-0.878,2.649-1.12
	c0.663-0.229,1.194-0.357,1.599-0.355c0.534,0.006,0.965,0.138,1.266,0.402c0.272,0.248,0.422,0.629,0.415,1.112l-0.008,0.729
	l-0.519,0.842l-0.628,1.501l0.146,0.425l-0.603,1.658l-1.773,3.179l-1.766,3.421l-1.673,3.58c-0.013,1.022,0.23,1.756,0.708,2.18
	c0.503,0.427,1.361,0.651,2.603,0.66c1.088,0.005,2.002-0.122,2.792-0.363c0.763-0.258,1.608-0.734,2.501-1.444l3.221-2.244
	l1.438-1.144l3.342-1.822l5.133-4.221l3.594-1.308c0.479-0.198,1.144-0.458,1.931-0.805c1.478-0.678,2.547-1.007,3.204-1.004
	c0.536,0.005,1.648,0.23,3.339,0.709c0.153,0.028,0.303,0.075,0.505,0.135l2.523,0.861l0.422,0.642l1.26,0.694l3.764,2.71
	l1.915,0.913l2.148,0.614c0.577,0.341,1.231,0.624,1.916,0.802c0.678,0.192,1.418,0.285,2.146,0.29c0.358,0,0.687-0.01,1.041-0.052
	c0.353-0.041,0.79-0.114,1.347-0.226l1.478-0.502c1.193-0.11,2.337-0.396,3.429-0.839c1.093-0.447,2.448-1.231,4.038-2.326
	c0.251-0.145,0.634-0.334,1.12-0.549c1.3-0.533,2.167-1.141,2.632-1.822c0.047-0.003,0.083-0.003,0.127-0.005
	c0.663,0.339,1.333,0.916,2.054,1.705c0.875,1.311,1.835,2.128,2.078,2.211c0.315,0.571,0.952,1.31,1.104,2.127
	c0.233,0.735,1.033,1.471,2.4,2.379c1.12,0.74,2.651,1.402,4.669,2.148c0.483,0,1.296,0.171,1.699,0.173
	c0.726,0.083,0.886,0.332,1.206,0.332c9.008-1.331,14.95-4.253,17.496-7.089c0.44-0.389,0.792-0.712,1.072-0.979
	c0.152,0.392,0.31,0.909,0.424,1.543c0.275,1.537,0.85,2.906,2.319,4.283c2.708,2.663,8.557,3.472,13.009,3.497
	c3.854,0.023,8.012-0.464,11.584-1.294c3.869-0.834,8.339-2.345,12.812-4.024c4.318-1.51,7.122-1.866,8.697-2.953
	c0.1,0.022,0.21,0.071,0.335,0.129c0.116,0.055,0.025-0.155-0.033-0.345c0.115-0.09,0.225-0.181,0.322-0.269
	c0.502,0.008,1.477-0.039,1.973-0.536c0.615-0.613,1.131-0.585,2.07-0.722l-1.49,1.918c-0.771,0.841-1.315,1.581-1.678,2.191
	c-0.361,0.611-0.522,1.147-0.527,1.632c-0.011,0.773,0.688,1.521,2.102,2.262c1.435,0.737,2.795,1.11,4.091,1.12
	c0.887,0.006,1.825-0.106,2.84-0.318c1.021-0.228,2.109-0.556,3.257-0.973c3.86-0.971,7.199-2.146,9.979-3.502
	c2.803-1.369,4.213-2.484,4.224-3.333v-0.086c0.13,0.03,0.303,0.044,0.508,0.062c0.204,0.017,0.403,0.031,0.605,0.031
	c0.129,0.003,0.331-0.041,0.564-0.129c0.202-0.083,0.579-0.27,1.065-0.546l1.864-1.051l2.621-0.847l1.354-0.808
	c0.331-0.224,0.715-0.422,1.121-0.595c0.386-0.158,0.764-0.272,1.121-0.329c-0.003,0.279-0.031,0.571-0.06,0.875
	c-0.031,0.292-0.034,0.585-0.039,0.877c-0.028,2.306,1.035,4.136,3.225,5.462c2.188,1.343,5.192,2.034,8.991,2.054
	c1.776,0.013,3.375-0.196,4.752-0.613c1.398-0.427,2.723-1.076,3.977-1.987c0.688-0.114,1.324-0.301,1.936-0.572
	c0.582-0.261,1.094-0.592,1.482-0.983c0.991-0.173,1.778-0.414,2.316-0.717c0.56-0.318,1.022-0.738,1.432-1.276l1.626-0.162
	l0.471-0.935c0.938-0.417,1.757-0.865,2.422-1.312c0.689-0.45,1.276-0.955,1.846-1.522c0.357-0.261,0.585-0.489,0.74-0.68
	c0.155-0.207,0.235-0.409,0.238-0.602l0.003-0.217c-0.1-0.292-0.272-0.497-0.552-0.613c-0.274-0.135-0.655-0.213-1.139-0.213
	c-0.15-0.002-0.327,0.014-0.481,0.026c-0.179,0.011-0.38,0.026-0.56,0.055l-0.916,0.419c-0.279,0.26-0.637,0.448-1.046,0.562
	c-0.383,0.1-0.913,0.183-1.547,0.234l-1.714,1.104c-0.663,0.17-1.475,0.37-2.464,0.585c-1.193,0.282-1.781,0.468-1.781,0.541
	c-0.005,0.32-0.748,0.786-2.225,1.4c-1.452,0.62-2.568,0.937-3.304,0.929c-1.396-0.008-2.557-0.264-3.49-0.735
	c-0.931-0.474-1.608-1.163-2.048-2.084l-0.141-1.24l-0.496-0.603l0.29-0.817l0.253-2.172l-0.222-0.427l0.543-0.725l0.005-0.177
	c0.003-0.656-0.29-1.211-0.869-1.669c-0.601-0.458-1.258-0.695-1.993-0.695c-1.495-0.014-2.788,0.11-3.907,0.369
	c-1.118,0.238-2.062,0.63-2.802,1.176l-3.214,1.561l-2.475,1.517c-1.327,0.549-2.551,1.051-3.623,1.543
	c-1.066,0.485-2.034,0.962-2.93,1.412l-1.731,0.674l-0.438,0.639c-0.683,0.197-1.85,0.306-2.091,1.1l-1.272,0.075l-0.735,0.218
	l-1.434,0.925l-0.892,0.434l-1.498,0.28l-1.706,0.681c-0.356,0.051-0.636,0.093-0.812,0.124c-0.202,0.026-0.332,0.039-0.381,0.039
	c-0.204,0-0.406-0.029-0.608-0.091l0.933-1.571c0.383-0.228,0.719-0.463,0.973-0.678c0.229-0.233,0.414-0.469,0.515-0.684
	c3.067-2.925,6.338-4.874,9.91-6.686l1.447-0.843l1.612-0.47l2.169-1.224l0.438-0.51l1.218-0.621l1.513-0.968l1.397-0.679
	l1.05-0.766l0.368-0.101c0.797-0.401,1.84-0.906,3.143-1.525c2.091-0.979,3.468-1.659,3.473-1.92l1.124-0.665
	c1.832-0.559,3.737,0.8,4.961,0.033c1.229-0.767,1.84-1.343,1.848-1.739c0-0.057-0.074-0.116-0.251-0.191
	c-0.176-0.074-0.3-0.135-0.403-0.162c0.052-0.07,0.13-0.158,0.205-0.246c0.105-0.086,0.157-0.144,0.157-0.175
	c0.002-0.203,0.367-0.585-0.435-0.882c0.492-1.395-2.19-2.009-3.398-1.644c-0.252,0-0.608-0.015-1.09-0.049
	c-0.456-0.031-0.761-0.047-0.833-0.049c-0.208,0-0.508,0.071-0.917,0.215c-0.383,0.142-0.763,0.198-1.118,0.198
	c-0.227-0.003-0.556,0.039-0.963,0.122c-0.383,0.085-0.863,0.212-1.401,0.391l-2.007,0.699c-0.411,0.143-0.996,0.372-1.809,0.678
	c-2.296,0.873-3.254,1.231-4.553,1.791l-0.668,0.64l-0.735,0.157c-0.814,0.169-1.473,0.381-2.008,0.627
	c-0.562,0.259-1.048,0.563-1.509,0.942l-0.892,0.328l-1.2,0.767c-0.459,0.116-0.812,0.227-1.123,0.356
	c-0.301,0.129-0.56,0.277-0.812,0.45l-1.936,0.66l-5.529,2.33l-0.01,0.629l-1.347,0.165c-0.841,0.479-1.579,0.927-2.24,1.318
	c-0.643,0.385-1.284,0.794-1.869,1.182l-2.473,1.139c-0.996,0.509-1.71,0.911-2.118,1.214c-0.438,0.29-0.741,0.58-0.947,0.87
	l-0.892,0.152c-0.61,0.205-1.247,0.448-1.909,0.754c-0.663,0.284-1.532,0.672-2.573,1.146c-0.277,0.124-0.543,0.271-0.812,0.427
	c-3.814,1.355-9.954,3.781-10.1,3.48c-3.623,1.842-7.748,2.858-9.539,3.36c-0.298,0.171-2.376,0.499-5.348,0.823
	c-2.078-0.017-4.744-0.373-7.112-0.56c-0.89-0.174-1.479-0.521-1.773-0.861c-0.287-0.345-0.877-0.862-0.872-1.204
	c-0.29-0.516-0.581-0.859-0.579-1.2c0.306-0.681,0.61-1.191,0.61-1.362c0.023-1.711,0.933-3.071,2.423-3.745
	c1.485-0.162,4.47-1.341,8.044-2.688c3.877-1.512,6.018-1.693,6.62-2.544c8.337-2.34,12.522-4.54,12.542-6.246
	c0.006-0.512-0.278-1.198-0.568-2.055c-0.285-0.687-0.574-1.2-0.569-1.714c-2.371-0.186-4.747-0.027-6.53,0.304
	c-1.786,0.331-3.87,0.83-5.062,1.335c-1.198,0.678-2.386,1.183-3.284,1.689c-3.872,1.002-8.642,2.853-14.308,5.21
	c-5.669,2.358-8.106,2.878-8.116,3.733c-2.736,1.34-5.906,2.671-7.842,4.521c-1.662,1.175-3.233,2.301-5.229,3.588
	c-0.404-0.003-1.703,0.314-3.494,0.874c-0.32-0.002-1.212-0.009-2.023,0.312c-2.022-0.339-3.955-1.247-4.747-2.474
	c-0.958-1.228-1.584-3.026-2.037-5.392c-0.375-2.365-0.681-3.836-0.673-4.239c-2.166-1.646-5.15-2.56-9.041-2.42
	c-0.812,0.32-2.039,1.209-2.862,2.265c-1.299,0.317-3.339,1.364-4.889,2.252c-1.8,1.291-4.154,1.85-4.48,2.254
	c-0.812,0.158-1.556,1.292-2.78,2.182c-0.849,0.56-1.567,1.043-2.158,1.361c-1.256-0.349-2.461-1.203-3.615-2.541
	c-0.826-0.971-1.576-1.75-2.198-2.322l-0.735-0.429l-0.439-1.082c-0.926-1.059-2.026-1.926-3.261-2.62
	c-1.259-0.696-2.567-1.141-3.96-1.351l-3.043,0.445l-1.425-0.008c-1.396,0.313-3.049,0.918-4.989,1.81
	c-1.937,0.911-4.871,2.479-8.75,4.735l-3.375,2.332c0.156-0.512,0.263-0.907,0.345-1.194c0.076-0.277,0.184-0.585,0.287-0.892
	l0.98-1.496l0.298-1.197l0.311-0.643l0.165-0.844l0.312-0.595l0.001-0.396c0.4-1.222,0.719-2.373,0.935-3.453
	c0.215-1.079,0.308-2.127,0.321-3.165c0.012-1.021-0.106-1.768-0.38-2.221c-0.245-0.453-0.647-0.691-1.205-0.693
	c-0.103-0.003-0.227,0.016-0.382,0.041c-0.129,0.031-0.28,0.042-0.433,0.042l-2.077,0.075c-1.852-0.013-3.067,0.01-3.677,0.08
	c-0.636,0.07-1.141,0.181-1.524,0.353l-1.936,0.763l-2.479,1.737l-6.001,3.38l-5.235,3.31l-5.816,2.915l-1.506,0.965l-1.352,0.505
	l0.313-0.844l0.167-0.903l1.063-1.992l0.319-1.167l0.014-1.108c0.438-0.655,0.804-1.369,1.066-2.169
	c0.267-0.802,0.4-1.62,0.414-2.482c0.008-0.773-0.337-1.374-0.99-1.799c-0.655-0.427-1.615-0.651-2.855-0.66
	c-2.962-0.018-8.521,2.388-16.642,7.211c-3.407,1.995-7.717,5.014-10.58,7.685c-0.909,0.846-3.39,1.641-4.003,2.477
	c-0.583,0.019,0.967-0.926-0.846,0.596c-2.248,1.087-4.804,4.034-7.164,3.579c-1.577-0.308-2.88-1.463-3.99-2.291
	c-0.814-0.603-1.403-2.425-1.387-3.729c0.006-0.327,0.26-1.287,0.845-2.63c0.003-0.329-0.069-0.906-0.544-1.75
	c-0.236-0.587-0.792-1.438-1.03-1.7c-0.319-0.427-0.964-0.877-1.854-0.937c-2.348-0.158-5.027,0.232-7.549,0.883
	c-2.279,0.825-4.155,1.76-5.474,3.382c-1.297,0.158-3.74,1.137-6.431,2.345c-2.608,1.212-7.049,3.18-8.436,3.821
	c-1.628,0.54-3.335,0.998-4.713,1.071l-0.484-0.197c0,0,0.12-1.159,0.828-2.239c0.445-1.094,4.747-3.53,7.111-4.591
	c2.118-1.082,3.887-2.278,5.224-2.619c0,0,0.651-0.122,1.47-0.637c0.57-0.124,1.384-0.396,1.869-0.445
	c0.329-0.386,1.388-0.885,1.968-1.744c0.972-0.096,2.196-0.831,3.344-1.651c1.144-0.657,2.204-1.317,3.257-1.33
	c3.423-1.24,5.871-2.707,6.856-3.701c2.436-0.163,4.661,0.059,5.645-0.932c0.983-0.75,1.156-1.474,1.003-2.216
	c-0.96-1.043-1.924-1.678-3.459-1.943c-1.699-0.355-3.727-0.249-5.839,0.264c-1.626,0.38-5.285,1.442-10.089,3.077
	c-5.863,2.299-10.429,4.196-12.871,5.254c-4.726,1.727-7.986,3.3-9.223,5.011c-4.891,1.512-8.081,3.209-9.621,4.89
	c-0.363,0.035-1.12,0.312-1.395,0.756c-0.561,0.441-2.669,2.2-4.837,3.134v0.021l-0.85,0.42c-1.49,0.673-5.449,0.769-8.135,1.777
	c-2.384,1.012-3.873,1.343-4.167,1.173c0,0-0.295-0.176-0.293-0.345c0,0-0.291-0.344-0.289-0.515c0.007-0.513,0.477-0.916,1.989-3.3
	c1.809-2.216,2.428-4.09,2.444-5.285c0.046-3.587-1.111-6.157-3.466-7.371c-0.284-0.854-0.869-1.542-1.46-1.888
	c-0.593-0.005-1.179-0.349-1.472-0.863c-3.832-1.902-7.081-2.945-9.752-2.966c-2.076-0.012-4.161,0.488-5.953,1.504
	c-0.296,0.168-1.194,0.675-2.984,1.348c-1.489,0.505-2.386,1.012-2.386,1.012c0,0.171-0.005,0.513,0.282,1.025
	c-0.003,0.344,0.284,1.028,0.574,1.542c-0.596,0.169-1.493,0.847-2.397,1.867c-0.901,0.848-1.502,1.355-1.801,1.526
	c-0.002,0.17-0.899,0.679-2.094,1.354c-1.196,0.849-1.797,1.355-1.797,1.355c-0.003,0.343-0.603,0.85-1.203,1.359
	c-0.6,0.51-1.135,1.628-1.732,1.967c-0.483,0.274-1.4,1.038-2.049,1.499c-0.203,0.111-0.414,0.229-0.643,0.37
	c-1.005,0.605-2.092,1.007-2.685,1.245c-4.775,2.316-10.43,3.722-16.962,4.037c-1.778-0.189-3.255-0.564-4.44-0.753
	c-1.182-0.367-2.361-0.919-2.95-1.464c-0.884-0.548-1.463-1.637-1.451-2.54c0.307-0.72,0.606-1.079,0.606-1.079
	c0.894-0.355,1.789-0.891,2.685-1.245c1.195-0.536,1.792-1.074,2.393-1.61c2.382-0.522,5.962-2.308,9.853-4.992
	c3.887-2.684,5.688-4.297,5.694-4.838c0.893-0.173,1.501-1.436,1.53-3.602c0.024-1.988-0.558-3.075-1.446-3.264
	c-1.47-1.093-3.834-1.83-6.799-1.854c-1.484-0.008-3.267,0.16-4.756,0.691c-1.192,0.356-2.087,0.709-2.391,1.247
	c-3.867,1.059-7.151,2.664-9.544,4.451c-1.192,0.355-2.093,1.072-2.995,2.148c-0.902,0.898-2.104,2.153-3.302,3.229
	c-0.307,0.721-0.913,1.618-1.814,2.697c-0.902,1.079-1.81,2.335-2.415,3.416c-0.06,0.21-0.113,0.415-0.173,0.614
	c-0.17,0.059-0.385,0.127-0.433,0.404c-0.101,0.58-2.006,1.669-3.063,2.179c-0.602,0.5-2.313,1.198-3.428,1.813
	c-1.257,0.638-2.575,1.209-3.948,1.698c-1.372,0.502-2.894,0.942-4.556,1.364l-1.437,0.852l-2.386-0.013l-1.64,0.817
	c-0.462-0.005-1.192,0.023-2.214,0.086c-1.02,0.059-1.688,0.09-1.979,0.09c-2.823-0.015-4.973-0.292-6.364-0.83
	c-1.421-0.554-2.37-1.439-2.793-2.663l-0.441-0.635c0.108-1.806,0.424-3.284,1.845-4.293c0.712-1.385,3.646-1.553,5.688-2.288
	l1.701-0.743l2.247-0.917c1.141-0.574,2.312-0.799,3.542-1.335c1.225-0.541,2.921-1.479,3.974-2.314l2.086-0.678l1.98-0.455
	l1.871-1.015l1.812-0.468c1.074-0.28,1.158-0.641,2.158-1.14c1.669-0.839,2.747-1.517,3-2.583c0.435-0.595-0.489-1.395-0.362-2.298
	c0.028-0.215-0.385-0.479-0.325-0.71c-0.23-0.478-0.072-0.916-0.36-1.1c-0.288-0.182-0.509-0.171-1.034-0.171
	c-0.229-0.002-0.463,0.013-0.727,0.044c-0.26,0.034-0.733-0.085-1.287,0.044h-0.263c-2.155-0.016-2.188-0.093-4.004,0.301
	c-2.214,0.476-3.541,1.079-4.148,1.219c-1.118,0.251-1.783,0.921-2.413,1.31c-0.702,0.433-1.503,0.608-1.975,0.649l-1.545,0.287
	c-2.456,0.933-4.764,1.82-6.929,2.656c-2.161,0.841-4.181,1.647-5.995,2.396l-0.941,0.477c-1.113,0.563-1.68,0.429-2.584,1.157
	c-3.059,0.787-12.183,3.617-12.405,10.795c-0.011,0.743,0.071,1.268,0.341,1.765c0.718,1.328,0.888,2.984,1.521,4.688
	c0.653,1.76,2.711,2.798,5.615,3.396l1.096,0.828c1.479,0.425,2.874,0.748,4.238,0.971c1.364,0.223,2.79,0.331,4.277,0.339
	l1.862,0.011l2.293-0.321c0.809-0.116,1.576-0.132,2.455-0.284c0.871-0.151,1.747-0.34,2.595-0.564l2.127-0.172
	c1.254-0.325,2.598-0.67,3.999-1.05c1.4-0.381,2.811-0.743,4.417-1.245c0.552-0.062,1.131-0.237,1.694-0.502
	c0.579-0.274,1.166-0.259,1.634-0.686c2.38-0.567,5.328-1.825,7.472-2.958c0.716-0.288,1.389-0.505,1.791-0.78
	c0.241-0.165,0.588-0.243,0.971-0.396c0.112,0.313,0.223,0.596,0.34,0.852c0.278,1.444,1.153,2.536,2.037,3.264
	c0.584,0.725,1.17,1.454,1.166,1.814c3.243,1.646,6.199,2.573,8.864,2.771c0.891,0.006,1.781,0.014,2.666,0.199
	c1.19-0.173,3.272-0.341,5.647-0.502c2.668-0.165,4.753-0.512,6.24-0.861c2.68-0.889,7.162-2.288,9.833-3.549
	c2.537-1.192,4.624-2.472,5.929-3.054c0.102-0.031,0.213-0.064,0.323-0.114c0.048-0.021,0.093-0.049,0.144-0.072
	c0.057-0.019,0.119-0.036,0.172-0.05c0.031-0.027,0.062-0.059,0.099-0.093c1.749-0.965,4.223-3.16,4.415-3.341
	c0.102-0.068,0.89-0.634,1.404-0.924c0.599-0.342,1.019-1.049,1.493-1.318c0.208-0.116,1.797-1.355,4.79-3.387
	c2.698-2.032,5.383-3.215,7.165-3.546h0.298c1.78,0.015,2.958,0.704,3.832,1.907c0.578,1.2,1.155,2.398,1.143,3.424
	c-0.028,2.224-0.816,4.165-2.634,7.227c-1.822,3.069-3.036,5.279-3.349,6.646c0.868,1.542,2.936,2.238,6.497,2.262
	c0.891,0.005,2.973-0.494,6.247-1.328c2.684-1.009,4.77-1.682,5.663-1.848c1.188-0.333,3.979-1.071,7.153-2.862
	c1.045-0.588,2.149-0.435,3.704-1.061v-0.037c2.155-0.872,4.754-2.475,5.869-3.104c0.249,0.16,0.405,0.331,0.403,0.481
	c-0.003,0.081-0.635,2.371-1.13,2.91c-0.329,0.383-0.822,0.921-0.826,1.33c-0.003,0.245-0.01,0.734-0.253,0.8
	c0.693,2.734,3.103,4.443,7.15,4.71c0.163,0.013,0.894-0.102,0.894-0.102s0.322,0.024,0.408-0.054
	c0.482,0.031,0.975-0.262,1.297-0.241c1.38,0.091,3.812-0.149,6.334-0.962c2.201-0.914,4.401-1.828,4.978-2.684
	c1.787-0.371,4.866-3.558,7.884-5.231c0.246-0.143,0.817-0.435,1.142-0.412c0,0,0.728,0.047,0.812-0.19
	c0.816-0.355,1.879-1.016,3.427-1.81c1.549-0.629,2.362-0.903,2.604-0.886c0,0,0.55,1.504,1.323,4.245
	c0.393,1.084,1.185,2.441,2.874,3.37c1.527,1.079,3.397,1.995,5.419,2.13c0.813-0.106,1.706,0.119,2.515,0.176
	c0.244,0.014,0.565,0.197,0.808,0.215c0,0,0.727-0.122,0.809-0.113c2.038,0.134,3.626-1.03,6.388-1.769
	c1.35-0.531,1.849-1.44,3.403-1.7c0.409-0.091,0.843-0.251,1.302-0.479c0.998-0.375,1.052-1.101,2.322-1.311
	C429.691,191.718,430.067,191.408,430.4,191.191 M317.98,187.332c-0.017,0.007-0.017,0.007,0.006-0.011L317.98,187.332z
	 M294.223,170.629c0.405,0.256,0.802,0.753,0.794,1.25c-0.011,0.989-0.832,1.957-2.062,3.168c-1.231,1.209-2.86,1.918-4.078,2.144
	c-1.231,1.209-3.265,1.909-5.697,2.109c-0.814-0.013-1.213-0.267-1.617-0.525c0.426-1.471,2.065-3.165,4.93-5.331
	C289.348,171.526,292.199,170.59,294.223,170.629 M380.937,162.254c-0.995-0.312-2.019-0.95-2.1-1.931
	c-0.014-0.163-0.038-0.486-0.052-0.652c0.866-1.24,3.023-2.506,6.083-3.619c2.745-1.026,5.156-2.13,5.912-2.8
	c0.862-0.341,2.367-0.696,3.449-1.284c1.089-0.51,2.106-0.937,2.737-1.109c1.29-0.021,3.852,0.67,6.698,1.848
	c0.671,0.316,2.495,0.857,5.448,1.379c3.054,0.764,5.05,1.466,5.828,2.11c2.24,0.695,3.146,1.907,3.298,3.704
	c0.074,0.897-0.45,1.399-1.07,1.735c-2.972-0.766-5.36-1.299-7.182-1.84c-2.14-0.455-4.289-1.072-6.154-1.123
	c-3.584-1.328-5.998-2.187-7.289-2.164c-0.565,0.008-1.891,0.604-3.37,1.284c-1.715,0.766-3.293,1.201-4.081,1.46
	c-1.11,0.264-2.765,0.779-4.552,1.63C382.984,161.647,381.341,162.247,380.937,162.254"/>
<rect y="15.578" fill-rule="evenodd" clip-rule="evenodd" fill="#414141" width="37.364" height="37.367"/>
<rect y="64.072" fill-rule="evenodd" clip-rule="evenodd" fill="#414141" width="37.364" height="37.363"/>
<rect y="112.753" fill-rule="evenodd" clip-rule="evenodd" fill="#414141" width="37.364" height="37.362"/>
<rect y="162.136" fill-rule="evenodd" clip-rule="evenodd" fill="#414141" width="37.364" height="37.368"/>
<rect x="48.253" y="162.322" fill-rule="evenodd" clip-rule="evenodd" fill="#414141" width="37.364" height="37.368"/>
<rect x="96.907" y="162.322" fill-rule="evenodd" clip-rule="evenodd" fill="#414141" width="37.364" height="37.368"/>
<rect x="145.467" y="162.322" fill-rule="evenodd" clip-rule="evenodd" fill="#414141" width="37.365" height="37.368"/>
<rect x="96.907" y="15.578" fill-rule="evenodd" clip-rule="evenodd" fill="#414141" width="37.364" height="37.367"/>
<rect x="145.467" y="15.578" fill-rule="evenodd" clip-rule="evenodd" fill="#414141" width="37.365" height="37.367"/>
<polygon fill-rule="evenodd" clip-rule="evenodd" fill="#414141" points="146.138,131.818 172.496,105.459 198.918,131.882 
	172.496,158.302 146.138,131.945 119.78,158.302 93.458,131.984 67.139,158.302 40.719,131.882 67.092,105.503 40.719,79.127 
	67.072,52.775 40.719,26.422 67.139,0 93.56,26.422 67.208,52.775 93.56,79.127 67.184,105.503 93.46,131.779 119.78,105.459 "/>
<rect x="96.907" y="64.072" fill-rule="evenodd" clip-rule="evenodd" fill="#414141" width="37.364" height="37.363"/>
<rect x="145.467" y="64.072" fill-rule="evenodd" clip-rule="evenodd" fill="#414141" width="37.365" height="37.363"/>
<path fill-rule="evenodd" clip-rule="evenodd" fill="#414141" d="M562.622,101.525c-16.854,37.345-65.476,44.455-100.823,43.974
	c-32.866-0.445-71.646-8.163-92.046-36.286c-6.534-9.012-9.84-18.434-9.84-28.333c0-10.321,3.399-20.177,9.469-28.487
	c16.746-22.923,54.922-35.788,93.028-36.709c51.26-1.24,102.521,19.123,102.521,65.636c0,1.639-0.185,4.271-0.544,7.822
	c-0.067,0.401-0.114,0.678-0.182,0.838H436.642c0,7.157,1.707,13.402,7.73,17.877c4.337,3.217,10.453,5.353,18.038,5.616
	c11.186,0.391,25.508-0.784,30.96-11.965L562.622,101.525z M436.642,69.912h56.728v-0.905c0-17.335-16.737-21.81-30.819-21.881
	c-12.398,0.434-25.908,6.294-25.908,20.633V69.912z"/>
</svg>
