<svg width="57" height="51" viewBox="0 0 57 51" fill="none" xmlns="http://www.w3.org/2000/svg">
<path d="M7.32482 23.8684V33.0678C7.32482 42.2671 11.5304 45.9551 22.0209 45.9551H34.6141C45.1046 45.9551 49.3102 42.2671 49.3102 33.0678V23.8684" stroke="black" stroke-width="1.29401" stroke-linecap="round" stroke-linejoin="round"/>
<path d="M28.3291 25.4665C32.6048 25.4665 35.7589 22.4137 35.3384 18.6643L33.7964 4.97791H22.8853L21.3199 18.6643C20.8994 22.4137 24.0535 25.4665 28.3291 25.4665Z" stroke="black" stroke-width="1.29401" stroke-linecap="round" stroke-linejoin="round"/>
<path d="M43.0719 25.4665C47.7915 25.4665 51.2494 22.1063 50.7821 17.9881L50.1279 12.3538C49.2868 7.02676 46.9504 4.97791 40.829 4.97791H33.7029L35.3384 19.3404C35.7356 22.721 39.2169 25.4665 43.0719 25.4665ZM13.4696 25.4665C17.3247 25.4665 20.8059 22.721 21.1797 19.3404L21.6937 14.8124L22.8152 4.97791H15.6892C9.56776 4.97791 7.23134 7.02676 6.39023 12.3538L5.7594 17.9881C5.29212 22.1063 8.75001 25.4665 13.4696 25.4665ZM28.3292 35.7107C24.4274 35.7107 22.4881 37.4113 22.4881 40.8329V45.955H34.1702V40.8329C34.1702 37.4113 32.231 35.7107 28.3292 35.7107Z" stroke="black" stroke-width="1.29401" stroke-linecap="round" stroke-linejoin="round"/>
</svg>
