<svg width="70" height="56" viewBox="0 0 70 56" fill="none" xmlns="http://www.w3.org/2000/svg">
<path d="M43.5247 4.75586V27.7606C43.5247 30.2911 40.9366 32.3615 37.7735 32.3615H6.14203V13.9577C6.14203 8.8737 11.2893 4.75586 17.6444 4.75586H43.5247Z" stroke="white" stroke-width="1.29401" stroke-linecap="round" stroke-linejoin="round"/>
<path d="M63.6538 32.3616V39.263C63.6538 43.0818 59.8005 46.1644 55.027 46.1644H52.1514C52.1514 43.6339 49.5634 41.5635 46.4002 41.5635C43.2371 41.5635 40.6491 43.6339 40.6491 46.1644H29.1467C29.1467 43.6339 26.5587 41.5635 23.3955 41.5635C20.2324 41.5635 17.6444 43.6339 17.6444 46.1644H14.7688C9.99532 46.1644 6.14203 43.0818 6.14203 39.263V32.3616H37.7735C40.9366 32.3616 43.5247 30.2912 43.5247 27.7606V11.6573H48.8157C50.8862 11.6573 52.784 12.5545 53.8193 13.9808L58.7365 20.8592H55.027C53.4454 20.8592 52.1514 21.8944 52.1514 23.1597V30.0611C52.1514 31.3264 53.4454 32.3616 55.027 32.3616H63.6538Z" stroke="white" stroke-width="1.29401" stroke-linecap="round" stroke-linejoin="round"/>
<path d="M23.3955 50.7652C24.9208 50.7652 26.3837 50.2805 27.4622 49.4177C28.5408 48.5548 29.1467 47.3845 29.1467 46.1643C29.1467 44.9441 28.5408 43.7738 27.4622 42.9109C26.3837 42.0481 24.9208 41.5634 23.3955 41.5634C21.8702 41.5634 20.4074 42.0481 19.3288 42.9109C18.2503 43.7738 17.6443 44.9441 17.6443 46.1643C17.6443 47.3845 18.2503 48.5548 19.3288 49.4177C20.4074 50.2805 21.8702 50.7652 23.3955 50.7652V50.7652ZM46.4002 50.7652C47.9255 50.7652 49.3884 50.2805 50.4669 49.4177C51.5455 48.5548 52.1514 47.3845 52.1514 46.1643C52.1514 44.9441 51.5455 43.7738 50.4669 42.9109C49.3884 42.0481 47.9255 41.5634 46.4002 41.5634C44.8749 41.5634 43.4121 42.0481 42.3335 42.9109C41.255 43.7738 40.649 44.9441 40.649 46.1643C40.649 47.3845 41.255 48.5548 42.3335 49.4177C43.4121 50.2805 44.8749 50.7652 46.4002 50.7652ZM63.6537 27.7605V32.3615H55.027C53.4454 32.3615 52.1514 31.3263 52.1514 30.061V23.1596C52.1514 21.8943 53.4454 20.8591 55.027 20.8591H58.7365L63.6537 27.7605Z" stroke="white" stroke-width="1.29401" stroke-linecap="round" stroke-linejoin="round"/>
</svg>
